<?xml version="1.0" encoding="UTF-8"?>
<svg width="300" height="200" viewBox="0 0 300 200" fill="none" xmlns="http://www.w3.org/2000/svg">
    <!-- Fondo -->
    <rect width="300" height="200" fill="#F5F5F5"/>
    
    <!-- Patrón de puntos -->
    <circle cx="50" cy="50" r="2" fill="#E0E0E0"/>
    <circle cx="100" cy="50" r="2" fill="#E0E0E0"/>
    <circle cx="150" cy="50" r="2" fill="#E0E0E0"/>
    <circle cx="200" cy="50" r="2" fill="#E0E0E0"/>
    <circle cx="250" cy="50" r="2" fill="#E0E0E0"/>
    
    <circle cx="50" cy="100" r="2" fill="#E0E0E0"/>
    <circle cx="100" cy="100" r="2" fill="#E0E0E0"/>
    <circle cx="150" cy="100" r="2" fill="#E0E0E0"/>
    <circle cx="200" cy="100" r="2" fill="#E0E0E0"/>
    <circle cx="250" cy="100" r="2" fill="#E0E0E0"/>
    
    <circle cx="50" cy="150" r="2" fill="#E0E0E0"/>
    <circle cx="100" cy="150" r="2" fill="#E0E0E0"/>
    <circle cx="150" cy="150" r="2" fill="#E0E0E0"/>
    <circle cx="200" cy="150" r="2" fill="#E0E0E0"/>
    <circle cx="250" cy="150" r="2" fill="#E0E0E0"/>
    
    <!-- Icono central -->
    <g transform="translate(125,75)">
        <!-- Microscopio estilizado -->
        <path d="M25,0 L35,0 L35,30 L25,30 Z" fill="#9E9E9E"/>
        <circle cx="30" cy="40" r="10" fill="#9E9E9E"/>
        <path d="M20,45 L40,45 L45,50 L15,50 Z" fill="#9E9E9E"/>
        
        <!-- ADN helicoidal -->
        <path d="M0,0 Q10,25 0,50" stroke="#BDBDBD" stroke-width="2" fill="none"/>
        <path d="M50,0 Q60,25 50,50" stroke="#BDBDBD" stroke-width="2" fill="none"/>
        
        <!-- Conexiones -->
        <line x1="0" y1="10" x2="50" y2="10" stroke="#BDBDBD" stroke-width="2"/>
        <line x1="0" y1="25" x2="50" y2="25" stroke="#BDBDBD" stroke-width="2"/>
        <line x1="0" y1="40" x2="50" y2="40" stroke="#BDBDBD" stroke-width="2"/>
    </g>
</svg>
